<mxfile host="e7f402a5-e3a9-403f-8210-ecad33d14cee" modified="2020-09-13T01:49:16.532Z" agent="5.0 (Windows NT 10.0; Win64; x64) AppleWebKit/537.36 (KHTML, like Gecko) Code/1.49.0 Chrome/83.0.4103.122 Electron/9.2.1 Safari/537.36" etag="PkbIV0DmOSdMDOcKRAKQ" version="13.1.3">
    <diagram id="6hGFLwfOUW9BJ-s0fimq" name="Page-1">
        <mxGraphModel dx="878" dy="467" grid="1" gridSize="10" guides="1" tooltips="1" connect="1" arrows="1" fold="1" page="1" pageScale="1" pageWidth="827" pageHeight="1169" math="0" shadow="0">
            <root>
                <mxCell id="0"/>
                <mxCell id="1" parent="0"/>
                <mxCell id="3" style="edgeStyle=orthogonalEdgeStyle;rounded=0;orthogonalLoop=1;jettySize=auto;html=1;exitX=1;exitY=0.5;exitDx=0;exitDy=0;entryX=0;entryY=0.5;entryDx=0;entryDy=0;" edge="1" parent="1" source="2" target="4">
                    <mxGeometry relative="1" as="geometry">
                        <mxPoint x="647" y="250" as="targetPoint"/>
                    </mxGeometry>
                </mxCell>
                <mxCell id="11" style="edgeStyle=orthogonalEdgeStyle;rounded=0;orthogonalLoop=1;jettySize=auto;html=1;exitX=1;exitY=0.5;exitDx=0;exitDy=0;entryX=0;entryY=0.5;entryDx=0;entryDy=0;fontSize=14;" edge="1" parent="1" source="2" target="10">
                    <mxGeometry relative="1" as="geometry"/>
                </mxCell>
                <mxCell id="2" value="Create config" style="rounded=1;whiteSpace=wrap;html=1;" vertex="1" parent="1">
                    <mxGeometry x="507" y="240" width="120" height="20" as="geometry"/>
                </mxCell>
                <mxCell id="4" value="Write to file with cwd considered." style="ellipse;whiteSpace=wrap;html=1;" vertex="1" parent="1">
                    <mxGeometry x="707" y="190" width="120" height="62.5" as="geometry"/>
                </mxCell>
                <mxCell id="10" value="Restart apache server to use the .config" style="ellipse;whiteSpace=wrap;html=1;" vertex="1" parent="1">
                    <mxGeometry x="707" y="260" width="120" height="62.5" as="geometry"/>
                </mxCell>
                <mxCell id="13" value="no" style="edgeStyle=orthogonalEdgeStyle;rounded=0;orthogonalLoop=1;jettySize=auto;html=1;entryX=0;entryY=0.5;entryDx=0;entryDy=0;fontSize=14;" edge="1" parent="1" target="2">
                    <mxGeometry x="0.106" y="10" relative="1" as="geometry">
                        <mxPoint x="280" y="180" as="sourcePoint"/>
                        <Array as="points">
                            <mxPoint x="280" y="250"/>
                        </Array>
                        <mxPoint as="offset"/>
                    </mxGeometry>
                </mxCell>
                <mxCell id="15" value="yes" style="edgeStyle=orthogonalEdgeStyle;rounded=0;orthogonalLoop=1;jettySize=auto;html=1;exitX=0.5;exitY=1;exitDx=0;exitDy=0;entryX=0;entryY=1;entryDx=0;entryDy=0;fontSize=14;" edge="1" parent="1" source="12" target="10">
                    <mxGeometry x="-0.5247" y="90" relative="1" as="geometry">
                        <mxPoint x="507" y="350" as="targetPoint"/>
                        <Array as="points">
                            <mxPoint x="280" y="340"/>
                            <mxPoint x="724" y="340"/>
                        </Array>
                        <mxPoint as="offset"/>
                    </mxGeometry>
                </mxCell>
                <mxCell id="12" value="There is a config?" style="rounded=1;whiteSpace=wrap;html=1;" vertex="1" parent="1">
                    <mxGeometry x="200" y="160" width="160" height="20" as="geometry"/>
                </mxCell>
                <mxCell id="20" value="we need:&lt;br&gt;- write acess&lt;br&gt;- the cwd&lt;br&gt;- the project's name&lt;br&gt;- root commands&amp;nbsp;" style="shape=process;whiteSpace=wrap;html=1;backgroundOutline=1;fontSize=14;align=left;size=0.0625;" vertex="1" parent="1">
                    <mxGeometry x="200" y="60" width="160" height="100" as="geometry"/>
                </mxCell>
            </root>
        </mxGraphModel>
    </diagram>
</mxfile>